<svg width="23" height="18" viewBox="0 0 23 18" fill="none" xmlns="http://www.w3.org/2000/svg">
<path fill-rule="evenodd" clip-rule="evenodd" d="M22.3602 6.3981C21.6702 5.5401 20.1602 4.99809 18.4702 4.66409L16.8302 1.2641C16.6501 0.887929 16.3682 0.56976 16.0165 0.345642C15.6647 0.121524 15.2573 0.000418861 14.8402 -0.00390625H7.9303C7.51556 -0.000722787 7.10995 0.118892 6.75989 0.341309C6.40982 0.563725 6.12927 0.880024 5.9502 1.25412L4.24023 4.79111C2.81046 4.96496 1.46757 5.57016 0.390259 6.52612C0.220609 6.72075 0.0995664 6.95282 0.0369872 7.20331C-0.0255919 7.4538 -0.0279094 7.71555 0.0302734 7.9671L1.67029 16.2671C1.78106 16.7556 2.05377 17.1923 2.44409 17.5062C2.83442 17.8201 3.31932 17.9927 3.82019 17.9961H18.9602C19.4617 17.9912 19.9466 17.816 20.3354 17.4993C20.7243 17.1826 20.9939 16.7432 21.1002 16.2531L22.7402 7.9971C22.8052 7.71936 22.8047 7.43032 22.7388 7.1528C22.6728 6.87528 22.5432 6.6169 22.3602 6.3981ZM7.3302 1.88611C7.38412 1.77171 7.46887 1.67458 7.57483 1.60553C7.68078 1.53648 7.80387 1.49825 7.9303 1.49512H14.8302C14.9595 1.4966 15.0856 1.53504 15.1937 1.60593C15.3018 1.67681 15.3873 1.77716 15.4402 1.89511L16.6403 4.37109C15.0436 4.18661 13.4375 4.09414 11.8302 4.09412C9.9073 4.09032 7.98632 4.2156 6.0802 4.46912L7.3302 1.88611ZM21.2402 7.68011L19.6102 15.9521C19.5754 16.1046 19.4905 16.2411 19.369 16.3397C19.2476 16.4383 19.0966 16.4933 18.9402 16.4961H3.84021C3.68496 16.4969 3.53411 16.4449 3.41235 16.3486C3.29059 16.2523 3.20524 16.1174 3.17029 15.9661L1.52026 7.65112C1.51203 7.61458 1.51424 7.57644 1.52661 7.54108C1.53899 7.50572 1.56098 7.47455 1.59021 7.45111C2.32021 6.55111 6.1502 5.59109 11.8302 5.59109C17.2802 5.59109 20.4903 6.4911 21.1603 7.3241C21.2057 7.37012 21.2373 7.42799 21.2515 7.49112C21.2656 7.55424 21.2617 7.6201 21.2402 7.68112V7.68011ZM13.6803 10.4941H12.1503V8.99811C12.1503 8.79522 12.0696 8.60065 11.9261 8.45718C11.7827 8.31372 11.5881 8.23309 11.3853 8.23309C11.1824 8.23309 10.9878 8.31372 10.8444 8.45718C10.7009 8.60065 10.6202 8.79522 10.6202 8.99811V10.4981H9.09021C8.8913 10.4981 8.70059 10.5771 8.55994 10.7178C8.41928 10.8584 8.34021 11.0492 8.34021 11.2481C8.34021 11.447 8.41928 11.6378 8.55994 11.7784C8.70059 11.9191 8.8913 11.9981 9.09021 11.9981H10.6202V13.4981C10.6202 13.701 10.7009 13.8956 10.8444 14.039C10.9878 14.1825 11.1824 14.2631 11.3853 14.2631C11.5881 14.2631 11.7827 14.1825 11.9261 14.039C12.0696 13.8956 12.1503 13.701 12.1503 13.4981V11.9981H13.6803C13.8792 11.9981 14.0699 11.9191 14.2106 11.7784C14.3512 11.6378 14.4303 11.447 14.4303 11.2481C14.4303 11.0492 14.3512 10.8584 14.2106 10.7178C14.0699 10.5771 13.8792 10.4981 13.6803 10.4981V10.4941Z" fill="black"/>
</svg>
