<svg width="16" height="17" viewBox="0 0 16 17" fill="none" xmlns="http://www.w3.org/2000/svg">
<path fill-rule="evenodd" clip-rule="evenodd" d="M6.23899 0.944824C2.84857 0.944824 0.100098 3.69331 0.100098 7.08371C0.100098 10.4741 2.84857 13.2226 6.23899 13.2226C7.76586 13.2226 9.15594 12.6708 10.23 11.7484C10.3763 11.472 10.5873 11.2427 10.8977 11.0796C11.8164 10.0065 12.3779 8.60709 12.3779 7.08371C12.3779 3.69331 9.6294 0.944824 6.23899 0.944824ZM6.23899 1.9129C8.33082 1.911 10.2177 3.16961 11.0196 5.10167C11.8214 7.03374 11.3802 9.25858 9.90171 10.7384C8.42323 12.2182 6.1988 12.6615 4.26601 11.8614C2.33322 11.0613 1.07288 9.17557 1.07288 7.08371C1.08578 4.23516 3.39043 1.92841 6.23899 1.9129ZM10.8977 11.0796L15.0554 15.2485C15.1743 15.3682 15.2203 15.5424 15.1761 15.7052C15.1318 15.8681 15.004 15.9951 14.8408 16.0382C14.6776 16.0813 14.5038 16.034 14.3848 15.9142L10.23 11.7484C10.5395 11.4847 10.6609 11.337 10.8977 11.0796Z" fill="#2ED100"/>
<path d="M10.23 11.7484C10.3763 11.472 10.5873 11.2427 10.8977 11.0796C10.6609 11.337 10.5395 11.4847 10.23 11.7484Z" fill="#2ED100"/>
<path d="M10.23 11.7484C10.3763 11.472 10.5873 11.2427 10.8977 11.0796M10.23 11.7484L14.3848 15.9142C14.5038 16.034 14.6776 16.0813 14.8408 16.0382C15.004 15.9951 15.1318 15.8681 15.1761 15.7052C15.2203 15.5424 15.1743 15.3682 15.0554 15.2485L10.8977 11.0796M10.23 11.7484C9.15594 12.6708 7.76586 13.2226 6.23899 13.2226C2.84857 13.2226 0.100098 10.4741 0.100098 7.08371C0.100098 3.69331 2.84857 0.944824 6.23899 0.944824C9.6294 0.944824 12.3779 3.69331 12.3779 7.08371C12.3779 8.60709 11.8164 10.0065 10.8977 11.0796M10.23 11.7484C10.5395 11.4847 10.6609 11.337 10.8977 11.0796M6.23899 1.9129C8.33082 1.911 10.2177 3.16961 11.0196 5.10167C11.8214 7.03374 11.3802 9.25858 9.90171 10.7384C8.42323 12.2182 6.1988 12.6615 4.26601 11.8614C2.33322 11.0613 1.07288 9.17557 1.07288 7.08371C1.08578 4.23516 3.39043 1.92841 6.23899 1.9129Z" stroke="#2ED100" stroke-width="0.2"/>
</svg>
